<?xml version="1.0" encoding="utf-8"?>
<!-- Generator: Adobe Illustrator 23.0.6, SVG Export Plug-In . SVG Version: 6.00 Build 0)  -->
<svg version="1.1" id="Layer_1" xmlns="http://www.w3.org/2000/svg" xmlns:xlink="http://www.w3.org/1999/xlink" x="0px" y="0px"
	 viewBox="0 0 930.3 802.1" style="enable-background:new 0 0 930.3 802.1;" xml:space="preserve">
<style type="text/css">
	.st0{opacity:0.1;enable-background:new    ;}
	.st1{fill:none;stroke:#535461;stroke-width:2;stroke-miterlimit:10;}
	.st2{fill:#536DFE;}
	.st3{fill:#40414D;}
	.st4{fill:#F6C6CD;}
	.st5{opacity:0.1;}
	.st6{fill:#FFFFFF;}
	.st7{fill:url(#SVGID_1_);}
	.st8{fill:#FEC3BE;}
	.st9{fill:#5A5773;}
	.st10{fill:#605D82;}
	.st11{opacity:5.000000e-02;enable-background:new    ;}
	.st12{fill:#67647E;}
	.st13{fill:#916168;}
	.st14{fill:#FD6F8D;}
	.st15{fill:#4D4981;}
	.st16{opacity:0.3;enable-background:new    ;}
	.st17{opacity:0.5;}
	.st18{fill:url(#SVGID_2_);}
	.st19{fill:#4D8AF0;}
	.st20{fill:#FFD180;}
	.st21{fill:url(#SVGID_3_);}
	.st22{fill:#58555D;}
	.st23{fill:#F55F44;}
	.st24{opacity:0.1;fill:url(#SVGID_4_);enable-background:new    ;}
	.st25{opacity:0.5;fill:#58555D;enable-background:new    ;}
</style>
<title>makeup artist</title>
<ellipse class="st0" cx="493.6" cy="752.6" rx="307.5" ry="49.5"/>
<path class="st0" d="M460.4,637.2c64.2-35.5,137.6-46.9,209.3-31.7c101.6,21.6,229.3,13.1,254-153.5C966,167.4,789,92.3,789,92.3
	s-117.7-9.9-187.3-47.4c-98.9-53.3-211.9-60.1-311.3-15c-63.5,28.8-115.9,69-124.8,124.1c-25,154.2,16.1,239.1-60.8,289.5
	s-11.2,188.5,47.7,183.7s192-57.3,243.8,3.5C414.7,652.2,438.1,649.6,460.4,637.2z"/>
<ellipse class="st0" cx="853.9" cy="718.9" rx="45" ry="16"/>
<path class="st1" d="M852.1,721.2c0,0,12-40.8-2.3-70.9c-6.1-12.6-7.9-26.8-5.2-40.5c1.3-6.5,3.2-12.9,5.7-19"/>
<path class="st2" d="M841.4,571.8c0,5,9.1,19.5,9.1,19.5s9.1-14.5,9.1-19.5c0-5-4.1-9.1-9.1-9.1S841.4,566.8,841.4,571.8
	L841.4,571.8z"/>
<path class="st2" d="M826.4,599.5c2.7,4.2,18.2,11.5,18.2,11.5s-0.3-17.1-3-21.3c-2.7-4.2-8.3-5.4-12.5-2.7
	C824.9,589.7,823.7,595.3,826.4,599.5L826.4,599.5L826.4,599.5z"/>
<path class="st2" d="M827.1,646.9c4.5,2.2,21.5,0.7,21.5,0.7s-8.9-14.6-13.3-16.9c-4.5-2.3-9.9-0.5-12.2,4S822.6,644.6,827.1,646.9
	L827.1,646.9z"/>
<path class="st2" d="M835.7,682.6c4,3,21.1,4.3,21.1,4.3s-6.3-15.9-10.3-18.9c-4-3-9.7-2.1-12.7,1.9
	C830.8,674,831.6,679.6,835.7,682.6L835.7,682.6z"/>
<path class="st2" d="M863.7,612c-3.6,3.5-20.3,7.1-20.3,7.1s4.1-16.6,7.7-20.1c3.6-3.5,9.3-3.4,12.8,0.2S867.3,608.5,863.7,612z"/>
<path class="st2" d="M873.2,653.9c-4.5,2.2-21.5,0.7-21.5,0.7s8.9-14.6,13.3-16.9c4.5-2.3,9.9-0.5,12.2,4S877.6,651.6,873.2,653.9
	L873.2,653.9L873.2,653.9z"/>
<path class="st2" d="M876.8,695.9c-4,3-21.1,4.3-21.1,4.3s6.3-15.9,10.3-18.9c4-3,9.7-2.1,12.7,1.9
	C881.7,687.2,880.8,692.9,876.8,695.9z"/>
<ellipse class="st0" cx="63.9" cy="698.9" rx="45" ry="16"/>
<path class="st1" d="M63.9,699c0,0,25.7-87.2-4.8-151.3c-12.8-26.9-17-57.2-11.1-86.4c2.8-13.9,6.9-27.5,12.2-40.6"/>
<path class="st2" d="M41.2,380.2c0,10.7,19.3,41.7,19.3,41.7s19.3-31,19.3-41.7c0-10.7-8.7-19.3-19.4-19.3
	C49.9,360.9,41.2,369.6,41.2,380.2z"/>
<path class="st2" d="M9.2,439.4c5.8,9,38.9,24.5,38.9,24.5s-0.6-36.5-6.4-45.5c-5.6-9.1-17.5-12-26.6-6.4c-9.1,5.6-12,17.5-6.4,26.6
	C8.9,438.9,9.1,439.1,9.2,439.4L9.2,439.4z"/>
<path class="st2" d="M10.6,540.5c9.5,4.8,45.9,1.5,45.9,1.5s-19-31.2-28.5-36c-9.5-4.8-21.2-1-26,8.6
	C-2.7,524.1,1.1,535.8,10.6,540.5L10.6,540.5z"/>
<path class="st2" d="M28.9,616.8c8.6,6.3,45,9.2,45,9.2s-13.4-34-22-40.3c-8.6-6.4-20.7-4.5-27,4S20.3,610.4,28.9,616.8L28.9,616.8z
	"/>
<path class="st2" d="M88.7,465.9c-7.7,7.4-43.4,15.2-43.4,15.2s8.7-35.5,16.4-42.9c7.7-7.5,19.9-7.3,27.4,0.4
	C96.6,446.2,96.4,458.5,88.7,465.9L88.7,465.9z"/>
<path class="st2" d="M109,555.4c-9.5,4.8-45.9,1.5-45.9,1.5s19-31.2,28.5-36c9.5-4.8,21.2-1,26,8.6C122.4,539,118.5,550.6,109,555.4
	L109,555.4z"/>
<path class="st2" d="M116.7,645c-8.6,6.3-45,9.2-45,9.2s13.4-34,22-40.3c8.6-6.4,20.7-4.5,27,4C127.1,626.6,125.3,638.7,116.7,645
	L116.7,645z"/>
<rect x="738.5" y="517.2" class="st3" width="14.8" height="235.4"/>
<rect x="590.6" y="517.2" class="st3" width="14.8" height="235.4"/>
<path class="st4" d="M578.8,495c0,9,61.5,16.3,99.1,16.3c37.6,0,66.6-7.3,66.6-16.3s-29-16.3-66.6-16.3
	C640.2,478.8,578.8,486,578.8,495z"/>
<path class="st3" d="M747.1,521.7H589.3c-5.8,0-10.5-4.7-10.5-10.4c0,0,0,0,0-0.1v-16.1l0,0h186.4l0,0v8.6
	C765.1,513.6,757,521.7,747.1,521.7z"/>
<path class="st3" d="M747,518.9l-7.9-1.8l0,0l39.2-173.6c0.9-3.8,4.6-6.1,8.4-5.3l6.6,1.5c3.8,0.9,6.1,4.6,5.3,8.4l-36.4,161.2
	C760.6,516.2,753.8,520.4,747,518.9L747,518.9z"/>
<g class="st5">
	<path class="st6" d="M534.9,583.9c-0.1-3.3-0.6-6.6-1.4-9.8l0.6,0.2C534.8,577.4,535,580.7,534.9,583.9z"/>
	<path class="st6" d="M528.5,630c10,0.6,41.1-13.7,47.3-21.2c0.8-1,1.3-2.2,1.4-3.5c0.4,2.1-0.2,4.3-1.4,6
		c-6.2,7.5-37.3,21.8-47.3,21.2c-10.6-0.6-46,1.2-47.3-14.9c-0.1-0.4,0-0.9,0.2-1.3C484.3,631.2,518.2,629.5,528.5,630z"/>
</g>
<linearGradient id="SVGID_1_" gradientUnits="userSpaceOnUse" x1="793.8036" y1="-6.8" x2="793.8036" y2="681.73" gradientTransform="matrix(-1 0 0 -1 1221.15 753.05)">
	<stop  offset="0" style="stop-color:#808080;stop-opacity:0.25"/>
	<stop  offset="0.54" style="stop-color:#808080;stop-opacity:0.12"/>
	<stop  offset="1" style="stop-color:#808080;stop-opacity:0.1"/>
</linearGradient>
<path class="st7" d="M262.8,638c6-2,15-4.3,22.1-3.5c6.7-2.5,22.6-8.9,33.4-18.4c-0.3-9.4-0.1-18.8,0.7-28.2
	c5.5-63-6.9-104.5-6.9-104.5s-9.8-31.7-8.7-58c-0.6,1.2-1,1.9-1,1.9c-0.9-22.7-8.6-46.1-14.4-60.7c-0.2-0.1-0.4-0.1-0.6-0.2
	l-6.6-15.3c-0.5-0.9-0.9-1.8-1.2-2.8l-1-2.4l0.3-0.1c-0.1-0.4-0.2-0.8-0.3-1.2l0,0c-4.1-17.5-7.3-58.9-7.3-58.9
	c-11.1-43.6,15.2-70.6,15.2-70.6l44.6-38.4c-0.2,0.5-0.4,1-0.4,1.6l0.4-0.3c0.6-1.8,1.3-4,2-6.4c-1.6-1.1-3.1-2.4-4.5-3.8
	c-5.1-4.8-8.6-11-10-17.9c-1.1-5.3-0.9-10.8-0.6-16.2l0.7-18.5c0-3.6,0.4-7.2,1.1-10.8c3.4-14.7,18.4-25,33.5-25.7
	c4.8-0.2,9.6,0.4,14.4,0.8c3.9,0.3,7.8,0.4,11.7,0.2c0.4,0,0.9-0.1,1.3-0.3c0.3-0.3,0.5-0.8,0.5-1.3c0.2-1.7-0.4-3.5-1.6-4.8
	c-0.6-0.5-1.3-0.9-2-1.2l1.1,0.3c-0.5-0.4-1.1-0.7-1.8-0.9c3.9,0.9,7.8,1.9,11.1,4c1,0.6,1.8,1.4,2.6,2.2c2.1,1.8,3.4,4.3,3.8,7
	c1.7-1.7,3.4-3.6,4-5.9c0.2-0.9,0.2-1.9,0-2.8c0.3,0.3,0.5,0.7,0.8,1c0-0.1,0-0.2-0.1-0.3c2.8,3.5,4.8,7.6,5.8,12
	c0.8-1,1.1-2.2,1-3.4c0.2,0.7,0.4,1.4,0.6,2.1c0.1-0.5,0.1-0.9,0.1-1.4c1.7,5.3,2.5,10.9,2.3,16.4c0,5.6-2.5,14.2-8.4,16.2
	c-0.3,0.1-0.6,0.2-0.9,0.2c11.2,17.3,6.2,40.5-11.2,51.6c-4.3,2.7-9,4.6-14,5.4c-0.1,0.7-0.2,1.4-0.3,2.1h-0.2
	c-0.2,1.5-0.3,3.1-0.4,4.7c1.5,1.5,3.1,2.8,4.9,3.9c5,3,10.6,4.8,16.3,5.4c6.9,0.5,13.6,2.5,19.7,5.8c7.1,4,15,9.8,17.5,16.8
	c4.1,11.8,26.8,30,42,32.3l5.4-0.3l0.4-0.1v0.1l1.3-0.1h0.1l0,0h0.3v0.1l1.4-0.1c0,0,0.1,0.6,0.3,1.8c7.7-2.6,23.9-9.9,45-29.1
	c23.5-21.4,55.3-17.1,67.6-14.5c1.1,0.3,1.8,1.4,1.6,2.5c-0.1,0.6-0.5,1.1-1,1.4c-4.9,2.7-12.6,6.7-16.2,7.1c0,0,7.4,7.7-0.5,11.8
	c-1.9,0.9-4.2,0.7-5.9-0.6c-3.8-2.8-14.3,3.5-29.6,6.8c0,0-43.1,44.6-64.5,51.5c-0.5,1-1,1.9-1.6,2.8l-1.3-0.1l-0.1,0.1h-0.2
	l-0.2,1.4c0,0-33.2-1.8-44-13.8c-0.8-0.7-1.5-1.4-2.1-2.2l11.6,145.5h-0.1l0.1,1.4h-8.5c-0.7,17.9,0,35.8,2.3,53.6v94.8
	c0,0,0.4,8.3-16.9,20.5c-18.2,12.7-35.7,26.2-52.5,40.7l-2.1,1.8c3.2,29,9.9,83.1,15.4,85.1l-3.4,0.6c5.9,7.5,22.6,27.9,27.7,28.5
	c6.2,0.7,10.4,10.4,0,12.5c-9.6,1.9-34.5,4.4-61.6-6.1c-4-1.6-6.5-5.7-5.9-10l2-15.3c-0.4,0.2-0.7,0.5-0.9,0.9c-1.4,4.2,0-5.5,0-5.5
	c-5.7-18.3-10.2-37-13.4-55.8L303.1,684c0,0-0.4-0.5-1.1-1.4c-5,11.4-14,34.8-12,52c2.8,23.5-23.5,2.8-20.8-11.1
	c2.2-11.2-7.8-58.6-11.6-76.3C256.7,643.2,259,639.3,262.8,638z"/>
<path class="st8" d="M477.7,254.1c0,0,19.6-3.4,48.7-29.7c23-20.9,54-16.7,66-14.1c1.1,0.2,1.8,1.2,1.7,2.3
	c-0.1,0.7-0.5,1.2-1.1,1.5c-4.8,2.6-12.3,6.5-15.8,7c0,0,7.2,7.5-0.5,11.5c-1.9,0.9-4.1,0.7-5.8-0.6c-3.7-2.7-14,3.4-28.9,6.6
	c0,0-58.1,60.1-71.6,50L477.7,254.1z"/>
<path class="st8" d="M377.7,172.3c0,0-5.4,23,0,39.2l-24.3,3.4l-21.6-10.9v-14.1c0,0,10.1-21.6,7.4-46.6L377.7,172.3z"/>
<path class="st9" d="M308.7,670.3c0,0-17.6,34.5-14.9,57.4s-23,2.7-20.3-10.8c2.2-10.9-7.6-57.3-11.4-74.5c-0.9-3.9,1.3-7.8,5.1-9
	c8.1-2.7,21.7-6,28.6-0.9C306,639.9,308.7,670.3,308.7,670.3z"/>
<path class="st9" d="M375.6,708.2c0,0,23,29.7,29.1,30.4s10.1,10.1,0,12.2c-9.3,1.9-33.7,4.3-60.2-5.9c-4-1.5-6.3-5.6-5.8-9.8
	l3.8-28.9L375.6,708.2z"/>
<path class="st10" d="M413.5,392.6l22,2.9c0,0-5.1,36.9,0.3,77.5v92.6c0,0,0.4,8.2-16.5,20c-17.7,12.4-34.8,25.6-51.2,39.7
	l-61.3,53.1c0,0-24.3-29.7-21-47.3c0,0,40.5-12.8,46-33.8c3.1-12,18.8-22,31.7-28.3c16.6-8.2,25.6-26.8,21.1-44.7
	c-0.8-3-1.9-6-3.5-8.7c-10.8-18.9-26.4-61.5-26.4-61.5l29.7-56.8L413.5,392.6z"/>
<path class="st11" d="M413.6,392.6l22,2.9c0,0-5.1,36.9,0.3,77.5v92.6c0,0,0.4,8.2-16.5,20c-17.7,12.4-34.8,25.6-51.2,39.7
	l-61.3,53.1c0,0-24.3-29.7-21-47.3c0,0,40.5-12.8,46-33.8c3.1-12,18.8-22,31.7-28.3c16.6-8.2,25.6-26.8,21.1-44.7
	c-0.8-3-1.9-6-3.5-8.7c-10.8-18.9-26.4-61.5-26.4-61.5l29.7-56.8L413.6,392.6z"/>
<path class="st10" d="M381,710.2c0,0-39.9,6.8-41.2,10.9s0-5.4,0-5.4s-23-69.6-17.6-131.1s-6.8-102-6.8-102s-14.2-46-6.1-72.3
	s93.2-14.9,93.2-14.9s-29.7,69.5-29.1,102.7c0,0-3.4,100-9.5,111.5C364.1,609.5,373.6,707.5,381,710.2z"/>
<path class="st6" d="M376.3,189.9c0,0-4,25-44.6,14.2l27,205.4c0,0,78.4,2.7,77.7-6.8l-16.2-124.3L376.3,189.9z"/>
<path class="st0" d="M375.3,188.6c0,0,7.7,8.2,19.5,9.3c6.7,0.5,13.3,2.5,19.2,5.7c7,3.9,14.6,9.5,17,16.5
	c4.7,13.5,34.5,35.8,48,31.1l-4.7,40.5c0,0-38.5-2-45.3-16.9l11.5,144.6h-10.1c0,0-5.4-39.2-9.5-47.3s-12.2-52.7-12.8-63.5
	s-10.8-73-19.6-83.8l-13.2-32.1L375.3,188.6z"/>
<path class="st0" d="M375.3,190.6c0,0,9,7.6,20.9,8.6c6.7,0.5,13.3,2.5,19.2,5.7c7,3.9,14.6,9.6,17,16.4c4.7,13.5,34.5,35.8,48,31.1
	l-4.7,40.5c0,0-38.5-2-45.3-16.9l11.5,144.6h-10.1c0,0-5.4-39.2-9.5-47.3s-12.2-52.7-12.8-63.5s-10.8-73-19.6-83.8l-14.5-31.4
	L375.3,190.6z"/>
<path class="st12" d="M375.3,189.2c0,0,9,7.6,20.9,8.6c6.7,0.5,13.3,2.5,19.2,5.7c7,3.9,14.6,9.6,17,16.4
	c4.7,13.5,34.5,35.8,48,31.1l-4.7,40.5c0,0-38.5-2-45.3-16.9l11.5,144.6h-10.1c0,0-5.4-39.2-9.5-47.3s-12.2-52.7-12.8-63.5
	s-10.8-73-19.6-83.8l-14.5-31.4L375.3,189.2z"/>
<path class="st0" d="M340.8,163.2c0.9-6.4-0.9-10.4-1.7-17.9l38.5,29.1c0,0-0.9,3.9-1.6,9.7c-1.9,0.3-3.9,0.5-5.8,0.5
	C356.8,184.5,347.1,174.1,340.8,163.2z"/>
<circle class="st8" cx="370.2" cy="146" r="36.5"/>
<path class="st0" d="M410.1,110.2c0.2-6.2-0.8-12.3-3-18.1c1.2,1.9,0.9,4.3-0.8,5.8c-1.2-6.3-4.4-12-9.1-16.2
	c2.6,0.4,3.9,3.6,3.3,6.2s-2.6,4.5-4.5,6.4c0.2-3.9-2.3-7.5-5.6-9.6s-7.1-3-10.9-3.9c2.7,1,4.4,3.6,4.2,6.5c0,0.5-0.2,0.9-0.5,1.2
	c-0.4,0.2-0.8,0.4-1.2,0.3c-3.8,0.2-7.6,0.1-11.4-0.2c-4.7-0.5-9.4-0.8-14.1-0.8c-14.8,0.6-29.5,10.6-32.8,25c-0.7,3.5-1,7-1.1,10.5
	l-0.7,18.1c-0.2,5.3-0.4,10.6,0.6,15.8c2,9.8,8.4,18.2,17.2,22.8c5.3-7.7,5.8-17.6,7.6-26.7c0.3-2.1,1.1-4.1,2.3-5.9
	c1.3-1.7,3.7-2.7,5.6-1.9s2.8,3.8,1.2,5.2c1.4,1.7,4.2,0.4,5.9-1.1c4.6-4.4,7.8-10.1,9.2-16.4c0.7-3.1,1.3-7,4.4-8.1
	c1.1-0.3,2.2-0.4,3.3-0.2c6.4,0.4,16.5,3.1,22.7,1.1C407.6,124.1,410.1,115.6,410.1,110.2z"/>
<path class="st13" d="M409.4,109.5c0.2-6.2-0.8-12.3-3-18.1c1.2,1.9,0.9,4.3-0.8,5.8c-1.2-6.3-4.4-12-9.1-16.3
	c2.6,0.4,3.9,3.6,3.3,6.2s-2.6,4.5-4.5,6.4c0.2-3.9-2.3-7.5-5.6-9.6s-7.1-3-10.9-3.9c2.7,1,4.4,3.6,4.2,6.5c0,0.5-0.2,0.9-0.5,1.2
	c-0.4,0.2-0.8,0.4-1.2,0.3c-3.8,0.2-7.6,0.1-11.4-0.2c-4.7-0.5-9.4-0.8-14.1-0.8c-14.8,0.6-29.5,10.6-32.8,25c-0.7,3.5-1,7-1.1,10.5
	l-0.7,18.1c-0.2,5.3-0.4,10.6,0.6,15.8c2.1,9.8,8.4,18.1,17.2,22.7c5.3-7.7,5.8-17.6,7.6-26.7c0.3-2.1,1.1-4.1,2.3-5.9
	c1.3-1.7,3.7-2.7,5.6-1.9s2.8,3.8,1.2,5.2c1.4,1.7,4.2,0.4,5.9-1.1c4.6-4.4,7.8-10.1,9.2-16.4c0.7-3.1,1.3-7,4.4-8.1
	c1.1-0.3,2.2-0.4,3.3-0.2c6.4,0.4,16.5,3.1,22.7,1.1C407,123.4,409.4,115,409.4,109.5z"/>
<path class="st0" d="M482.1,251.1c0,0,5.4,25-4.7,40.5l-5.7-0.5l3.1-39.6L482.1,251.1z"/>
<path class="st14" d="M480.7,251.1c0,0,5.4,25-4.7,40.5l-5.7-0.5l3.1-39.6L480.7,251.1z"/>
<path class="st0" d="M335.4,182.8l-43.6,37.5c0,0-25.7,26.3-14.9,68.9c0,0,4.7,62.2,10.1,64.9c0,0,18.9,37.8,20.3,73.6
	c0,0,25.3-51,36.8-19.9s38.2,35.5,38.2,35.5l-14.9-183.8C367.5,259.5,330,194.3,335.4,182.8z"/>
<path class="st12" d="M334.1,182.8l-43.6,37.5c0,0-25.7,26.4-14.9,68.9c0,0,4.7,62.2,10.1,64.9c0,0,18.9,37.8,20.3,73.6
	c0,0,26.7-53.7,38.2-22.6s36.8,38.2,36.8,38.2l-14.9-183.8C366.1,259.5,328.7,194.3,334.1,182.8z"/>
<path class="st8" d="M314.1,341.3c0,0-10.8-7.4-28.4,12.8l43.2,78.4l14.5-22C343.5,410.5,312.8,350,314.1,341.3z"/>
<path class="st0" d="M324.6,345.6c0,0-23.9,26.9-33.2,22.5l-8.6-20.1l32.4-13.9L324.6,345.6z"/>
<path class="st14" d="M324.6,344.3c0,0-23.9,26.9-33.2,22.5l-8.6-20.1l32.4-13.9L324.6,344.3z"/>
<path class="st0" d="M342.1,405.4c0,0-11.4,23.3-17.5,24.7l8.8,10.1l12.8-24.3L342.1,405.4z"/>
<path class="st15" d="M342.8,406.1c0,0-11.4,23.3-17.5,24.7l8.8,10.1l12.8-24.3L342.8,406.1z"/>
<path class="st0" d="M321.2,261.9c0,0-1.4,48.6,4,66.9"/>
<path class="st0" d="M430.7,271.3c0,0-8.1-2.7-8.1-9.5"/>
<circle class="st2" cx="705.5" cy="332.8" r="18.2"/>
<circle class="st16" cx="705.5" cy="332.8" r="18.2"/>
<g class="st17">
	
		<linearGradient id="SVGID_2_" gradientUnits="userSpaceOnUse" x1="856.7791" y1="335.0122" x2="856.7791" y2="472.3423" gradientTransform="matrix(1 0 0 -1 -115 742.8)">
		<stop  offset="0" style="stop-color:#808080;stop-opacity:0.25"/>
		<stop  offset="0.54" style="stop-color:#808080;stop-opacity:0.12"/>
		<stop  offset="1" style="stop-color:#808080;stop-opacity:0.1"/>
	</linearGradient>
	<path class="st18" d="M776.5,335.4c-2.1-11.5-4.2-23.1-9-33.8c-5.2-11.7-13.4-21.9-23.8-29.6c-1.5-1.2-3.4-1.7-5.4-1.6l0,0
		c-3,0.3-3.9,2.1-4.4,4c-0.1,0.2-0.1,0.4-0.2,0.7c-1.2,5.8-0.4,11.6,1.3,17.3c2.1,7.1,5.7,14,8.7,20.9c5.4,12.3,8.9,25.3,10.5,38.6
		c0.2,1.8,0.4,3.6,0.4,5.4c0,1.1,0,2.2-0.1,3.2c-0.1,2.1-0.6,4.2-1.4,6.1c-0.1,0.3-0.3,0.7-0.5,1c-0.2,0.3-0.3,0.7-0.5,0.9
		c-1.8,3-4.7,5.1-7.4,7.2s-5.9,4.4-9.2,5.5h0.1c-1.5,0.6-3.2,0.8-4.8,0.8c-5.1-0.2-10.6-4.3-15.8-3.3l0,0l-0.6,0.1
		c-5.3,1.4-9.3,9.7-9.4,15l0,0c0,0.4,0,0.8,0,1.2c0,0.1,0,0.3,0,0.4s0.1,0.5,0.1,0.8s0.1,0.3,0.1,0.5s0.1,0.5,0.2,0.7
		s0.1,0.3,0.1,0.5s0.1,0.4,0.2,0.6s0.1,0.3,0.2,0.4s0.2,0.4,0.2,0.6l0.2,0.4c0.1,0.2,0.2,0.4,0.3,0.5l0.3,0.4l0.3,0.5l0.3,0.4
		l0.4,0.4l0.3,0.3l0.4,0.4l0.3,0.3l0.5,0.4l0.4,0.3l0.5,0.4l0.4,0.3l0.6,0.3l0.4,0.2l0.6,0.3l0.4,0.2c0.3,0.1,0.6,0.3,0.9,0.4
		l0.5,0.2l0.7,0.3l0.5,0.2l0.6,0.2l0.6,0.1l0.6,0.1l0.6,0.1l0.5,0.1l0.7,0.1l0.5,0.1l0.7,0.1l0.5,0.1l0.7,0.1h0.5h0.7h0.5h0.8h1.6
		h0.8h0.3l0.9-0.1h0.2c2.5-0.2,5-0.8,7.3-1.6c7.5-2.8,13.8-8,19.7-13.4c11.6-10.8,22.6-24.1,23.6-39.9
		C778.6,346.9,777.6,341.1,776.5,335.4z"/>
</g>
<rect x="633" y="331.6" class="st0" width="94.3" height="27.3"/>
<rect x="633" y="331.6" class="st2" width="94.3" height="24.8"/>
<circle class="st2" cx="687.6" cy="320.1" r="14.9"/>
<path class="st19" d="M659.5,343l-0.2-0.2c1.2-0.9,1.4-2.6,0.5-3.8c-0.2-0.2-0.3-0.4-0.5-0.5l0.2-0.2c1.3,1,1.5,2.9,0.5,4.2
	C659.9,342.6,659.7,342.8,659.5,343L659.5,343z"/>
<path class="st0" d="M659.5,343l-0.2-0.2c1.2-0.9,1.4-2.6,0.5-3.8c-0.2-0.2-0.3-0.4-0.5-0.5l0.2-0.2c1.3,1,1.5,2.9,0.5,4.2
	C659.9,342.6,659.7,342.8,659.5,343L659.5,343z"/>
<path class="st19" d="M659.4,343c-1.3-1-1.5-2.9-0.5-4.2c0.2-0.2,0.3-0.4,0.5-0.5l0.2,0.2c-1.2,0.9-1.4,2.6-0.5,3.8
	c0.2,0.2,0.3,0.4,0.5,0.5L659.4,343z"/>
<polyline class="st19" points="659.5,338.3 659.5,338.3 659.5,338.3 659.5,338.3 "/>
<path class="st20" d="M735.6,423c6.8-2.6,12.6-7.3,18-12.3c10.6-9.8,20.7-22,21.5-36.5c0.3-5.3-0.6-10.5-1.6-15.8
	c-1.9-10.5-3.9-21.1-8.2-30.9c-4.8-10.7-12.3-20-21.7-27c-1.4-1.1-3.2-1.6-4.9-1.5c-3,0.3-3.8,2.3-4.2,4.3
	c-2.4,12,4.2,23.6,9.1,34.8c4.9,11.2,8.1,23.1,9.6,35.3c0.6,5.2,0.9,10.7-1.9,15.2c-1.7,2.7-4.3,4.7-6.8,6.6
	c-3.8,2.9-8,5.9-12.8,5.7s-10.1-4.2-15-2.9s-8.5,8.9-8.6,13.7C708.3,425.1,726.5,426.5,735.6,423z"/>
<g class="st5">
	<path d="M751.4,388.8c-1.7,2.7-4.3,4.7-6.8,6.6c-2.5,2.1-5.4,3.8-8.5,5c4.3-0.3,8.2-3,11.7-5.7c2.5-1.9,5.1-3.9,6.8-6.6
		c2.7-4.4,2.5-10,1.9-15.2c-1.5-12.2-4.7-24-9.6-35.3c-4.9-11.2-11.6-22.9-9.1-34.8c0.1-1.4,0.9-2.7,2-3.6c-0.4,0-0.7,0-1.1,0
		c-3,0.3-3.8,2.3-4.2,4.3c-2.4,12,4.2,23.6,9.1,34.8c4.9,11.2,8.1,23.1,9.6,35.3C753.9,378.8,754.2,384.3,751.4,388.8z"/>
	<path d="M711.6,411.3c0-4.5,3.2-11.3,7.5-13.3c-0.7,0-1.5,0.1-2.2,0.2c-4.8,1.3-8.5,8.9-8.6,13.7c-0.1,12.3,15.7,14.3,25.3,11.7
		C724.1,425,711.5,422.2,711.6,411.3z"/>
</g>
<g class="st17">
	
		<linearGradient id="SVGID_3_" gradientUnits="userSpaceOnUse" x1="780.7081" y1="252.517" x2="780.7081" y2="488.0329" gradientTransform="matrix(1 0 0 -1 -115 742.8)">
		<stop  offset="0" style="stop-color:#808080;stop-opacity:0.25"/>
		<stop  offset="0.54" style="stop-color:#808080;stop-opacity:0.12"/>
		<stop  offset="1" style="stop-color:#808080;stop-opacity:0.1"/>
	</linearGradient>
	<path class="st21" d="M642,274.6c0,0,27.2-5.5,40.9,0c0,0,8.2-19.1,16.3-19.1s10.9,30,10.9,30l10.9,43.6c0,0,51.8,92.6,0,141.6
		s-133.5-5.5-133.5-40.9s16.3-108.9,16.3-108.9s16.3-59.9,21.8-65.4C631.1,250.1,642,274.6,642,274.6z"/>
</g>
<path class="st20" d="M642.9,278.4c0,0,26.2-5.2,39.3,0c0,0,7.8-18.3,15.7-18.3s10.5,28.8,10.5,28.8l10.5,41.9c0,0,49.8,89,0,136.1
	s-128.3-5.2-128.3-39.3s15.7-104.7,15.7-104.7s15.7-57.6,21-62.8C632.4,254.8,642.9,278.4,642.9,278.4z"/>
<g class="st5">
	<path class="st6" d="M737.1,379.7c-4-17-10.2-33.5-18.3-48.9l1.7,6.6C727.5,350.8,733.1,365,737.1,379.7z"/>
	<path class="st6" d="M595.2,420.6c0-34,12.7-91.1,12.7-91.1s15.7-57.6,21-62.8s15.7,18.3,15.7,18.3s26.2-5.2,39.3,0
		c0,0,7.9-18.3,15.7-18.3c3,0,5.3,4.3,6.9,9.6c-1.6-7.8-4.3-16.3-8.6-16.3c-7.8,0-15.7,18.3-15.7,18.3c-13.1-5.2-39.3,0-39.3,0
		s-10.5-23.6-15.7-18.3c-5.2,5.2-21,62.8-21,62.8s-12.7,57-12.7,91.1C593.5,417.1,595.2,421.6,595.2,420.6z"/>
</g>
<circle class="st22" cx="693.9" cy="324.2" r="5.2"/>
<circle class="st22" cx="633.7" cy="324.2" r="5.2"/>
<ellipse class="st22" cx="665.1" cy="329.5" rx="7.8" ry="5.2"/>
<rect x="709.4" y="320.3" transform="matrix(0.9762 -0.2168 0.2168 0.9762 -52.5539 164.0377)" class="st20" width="24.1" height="2.6"/>
<rect x="709.4" y="330.7" transform="matrix(0.9807 -0.1954 0.1954 0.9807 -50.955 147.6503)" class="st20" width="26.7" height="2.6"/>
<rect x="601" y="302.3" transform="matrix(0.3714 -0.9285 0.9285 0.3714 84.8734 758.0893)" class="st20" width="2.6" height="28.2"/>
<rect x="597.1" y="309.7" transform="matrix(0.1521 -0.9884 0.9884 0.1521 184.3017 868.5806)" class="st20" width="2.6" height="34.4"/>
<path class="st0" d="M658.6,363c-6.9,0-13.7-0.6-20.5-1.7c-13-2.2-25.5-6.7-36.9-13.3l0.9-4.2c11.6,6.3,24.1,10.7,37,13
	c18.8,3.2,51.3,2.3,84.2-15.9l2.2,4C701.6,358,676.5,363,658.6,363z"/>
<path class="st23" d="M723.4,339.8c-33,18.2-65.4,19.1-84.2,15.9c-12.9-2.3-25.4-6.7-37-13l-2.4,3.9c12,6.6,25,11.2,38.4,13.6
	c6.8,1.2,13.6,1.8,20.5,1.8c17.9,0,43-4.9,67-18.1L723.4,339.8z M659.5,361.6c-0.3,0-0.5-0.2-0.5-0.5s0.2-0.5,0.5-0.5
	c0.3,0,0.5,0.2,0.5,0.5C660,361.4,659.7,361.6,659.5,361.6L659.5,361.6z"/>
<linearGradient id="SVGID_4_" gradientUnits="userSpaceOnUse" x1="774.443" y1="369.0422" x2="774.443" y2="379.1622" gradientTransform="matrix(1 0 0 -1 -115 742.8)">
	<stop  offset="0" style="stop-color:#FFFFFF"/>
	<stop  offset="1" style="stop-color:#000000"/>
</linearGradient>
<path class="st24" d="M654.4,368.7L654.4,368.7c0,2.8,2.3,5.1,5.1,5.1l0,0c2.8,0,5.1-2.3,5.1-5.1l0,0c0-2.8-2.3-5.1-5.1-5.1l0,0
	C656.6,363.6,654.4,365.9,654.4,368.7z M659.4,366.2c-0.5,0-0.8-0.4-0.8-0.8s0.4-0.8,0.8-0.8c0.5,0,0.8,0.4,0.8,0.8
	C660.3,365.8,659.9,366.2,659.4,366.2L659.4,366.2z"/>
<path class="st19" d="M654.9,368.7L654.9,368.7c0,2.5,2,4.6,4.6,4.6l0,0c2.5,0,4.6-2,4.6-4.6l0,0c0-2.5-2-4.6-4.6-4.6l0,0
	C656.9,364.1,654.9,366.2,654.9,368.7z M659.5,366.4c-0.4,0-0.8-0.3-0.8-0.8s0.3-0.8,0.8-0.8c0.4,0,0.8,0.3,0.8,0.8
	S659.9,366.4,659.5,366.4L659.5,366.4z"/>
<path class="st20" d="M716.7,341.4c-69.7,41-109.8,3-109.8,3L716.7,341.4z"/>
<path class="st0" d="M654.1,407.6c0,0,18.2,39.6-5.7,43s-13-33.2-13-33.2s-2.4-10.9-8.2-11.5"/>
<path class="st0" d="M676.1,406.6c0,0-21.7,37.8,1.9,43.3s15.9-31.9,15.9-31.9s3.3-10.6,9.2-10.7"/>
<path class="st20" d="M652,406.5c0,0,18.2,39.6-5.7,43s-13-33.2-13-33.2s-2.4-10.9-8.2-11.5"/>
<path class="st20" d="M677.8,405c0,0-21.7,37.8,1.9,43.3s15.9-31.9,15.9-31.9s3.3-10.6,9.2-10.7"/>
<rect x="638.6" y="441.2" class="st25" width="0.4" height="7.7"/>
<rect x="645.2" y="441.2" class="st25" width="0.4" height="7.7"/>
<rect x="641.6" y="438.8" class="st25" width="0.4" height="10.8"/>
<rect x="681.6" y="439.6" class="st25" width="0.4" height="7.7"/>
<rect x="688.2" y="439.6" class="st25" width="0.4" height="7.7"/>
<rect x="684.6" y="437.1" class="st25" width="0.4" height="10.8"/>
</svg>
